<?xml version="1.0" standalone="no"?>
<svg viewBox="0 0 200 200" xmlns="http://www.w3.org/2000/svg">
  <path fill="#FF0066" d="M39.5,-74C48,-63.5,49.6,-46.5,53.5,-33.1C57.4,-19.7,63.7,-9.8,64.8,0.6C65.9,11.1,61.8,22.2,56.1,32.6C50.5,43,43.2,52.7,33.6,54.5C24,56.4,12,50.4,2.4,46.3C-7.2,42.1,-14.4,39.8,-24.7,38.4C-35.1,36.9,-48.5,36.3,-55.6,30.1C-62.8,23.8,-63.8,11.9,-67.4,-2.1C-71.1,-16.1,-77.4,-32.3,-73.9,-44.9C-70.4,-57.5,-57.1,-66.6,-43.1,-74C-29.2,-81.4,-14.6,-87,0.5,-87.8C15.5,-88.6,31,-84.5,39.5,-74Z" transform="translate(100 100)" />
</svg>
